<svg width="150" height="41" viewBox="0 0 150 41" fill="none" xmlns="http://www.w3.org/2000/svg">
<path fill-rule="evenodd" clip-rule="evenodd" d="M18.3985 17.0859C19.5604 17.7603 20.8508 18.0975 22.2699 18.0975C23.7511 18.0975 25.0708 17.7603 26.2289 17.0859C27.3865 16.4117 28.3006 15.4192 28.9714 14.1088C29.6418 12.7981 29.9772 11.1926 29.9772 9.29208C29.9772 7.45278 29.6397 5.89345 28.9655 4.61351C28.2909 3.33358 27.3747 2.36238 26.217 1.69935C25.059 1.0366 23.7473 0.705078 22.2813 0.705078C20.7844 0.705078 19.4588 1.0366 18.305 1.69935C17.1511 2.36238 16.2447 3.33358 15.5857 4.61351C14.9267 5.89345 14.5977 7.45278 14.5977 9.29208C14.5977 11.1926 14.9407 12.7981 15.6267 14.1088C16.3128 15.4192 17.2366 16.4117 18.3985 17.0859ZM24.3166 14.1663C23.7317 14.5571 23.0494 14.7524 22.2699 14.7524C21.7238 14.7524 21.215 14.6434 20.7434 14.4249C20.2718 14.2065 19.8607 13.8749 19.5096 13.4304C19.1585 12.9861 18.8857 12.4227 18.6907 11.7406C18.4962 11.0585 18.3985 10.2539 18.3985 9.32654C18.3985 8.16167 18.5681 7.18848 18.9073 6.40668C19.2465 5.62516 19.7105 5.03703 20.2989 4.64228C20.8876 4.24754 21.5487 4.05016 22.2813 4.05016C23.0532 4.05016 23.7338 4.24754 24.3221 4.64228C24.9109 5.03703 25.369 5.62516 25.6964 6.40668C26.0242 7.18848 26.1879 8.16167 26.1879 9.32654C26.1879 10.5603 26.0221 11.5777 25.6909 12.3786C25.3593 13.1794 24.9012 13.7753 24.3166 14.1663ZM4.18792 17.7529V13.0901L6.07776 10.7609L10.1759 17.7529H14.6086L8.67994 8.23049L14.0355 1.03857H9.68483L5.48601 6.85523L4.18792 9.07562V1.03857H0.46875V17.7529H4.18792ZM0.46875 23.2495V39.9836H4.11015V31.5245L3.74724 26.1152H3.86454L5.44535 31.49L7.93915 39.9836H10.9487L13.4074 31.49L14.9882 26.1152H15.1055L14.7426 31.5245V39.9836H18.384V23.2495H12.1781L10.0586 32.5259L9.44967 35.3916H9.40308L8.80599 32.5259L6.65139 23.2495H0.46875ZM25.7298 39.4256C26.7253 39.9511 27.8941 40.214 29.2369 40.214C30.5874 40.214 31.7583 39.9474 32.7496 39.4139C33.7409 38.8807 34.51 38.1153 35.0562 37.1179C35.6029 36.1205 35.8761 34.9351 35.8761 33.5618V23.2495H32.1174V33.1358C32.1174 33.7803 32.0568 34.3423 31.9357 34.8219C31.815 35.3015 31.6355 35.6984 31.397 36.0132C31.159 36.3278 30.8626 36.5616 30.5073 36.7153C30.152 36.8687 29.7366 36.9454 29.2602 36.9454C28.7762 36.9454 28.3527 36.8687 27.9898 36.7153C27.6269 36.5616 27.3224 36.3258 27.0764 36.0073C26.8304 35.689 26.647 35.2918 26.5263 34.8162C26.4052 34.3406 26.3446 33.7803 26.3446 33.1358V23.2495H22.5859V33.5618C22.5859 34.9582 22.8612 36.1532 23.4113 37.1467C23.9618 38.1404 24.7346 38.9001 25.7298 39.4256ZM40.082 39.9836V23.2495H43.8289V36.6115H49.9531V39.9836H40.082ZM53.4889 27.9453V39.9836H57.2125V26.5526H61.393V23.2495H49.2852V26.5526H54.5311C54.18 26.6065 53.9183 26.7369 53.7468 26.9442C53.5749 27.1512 53.4889 27.4851 53.4889 27.9453ZM68.4189 23.2495H64.6602V39.9836H68.4189V23.2495ZM72.75 23.2495V39.9836H76.3918V31.5245L76.0289 26.1152H76.1458L77.7266 31.49L80.2208 39.9836H83.23L85.6891 31.49L87.2699 26.1152H87.3868L87.0238 31.5245V39.9836H90.6657V23.2495H84.4593L82.3403 32.5259L81.7313 35.3916H81.6843L81.0872 32.5259L78.9326 23.2495H72.75ZM95.0117 39.9836V23.2495H105.445V26.5526H98.6768V29.7754H104.66V33.0668H98.6768V36.6577H105.656V39.9836H95.0117ZM114.192 36.646H113.161V26.5526H114.18C115.405 26.5526 116.397 26.7061 117.154 27.0132C117.911 27.32 118.465 27.8321 118.817 28.5495C119.168 29.267 119.344 30.2393 119.344 31.4671C119.344 32.7101 119.162 33.7113 118.799 34.4709C118.436 35.2305 117.876 35.7828 117.119 36.1281C116.362 36.4735 115.386 36.646 114.192 36.646ZM113.161 23.2495H114.754C116.557 23.2495 118.085 23.5603 119.338 24.1819C120.591 24.8033 121.545 25.7203 122.201 26.9325C122.856 28.1449 123.185 29.6411 123.185 31.421C123.185 33.2165 122.845 34.7529 122.166 36.0303C121.486 37.3078 120.524 38.2861 119.279 38.9651C118.034 39.6443 116.561 39.9836 114.859 39.9836H113.161H112.295H109.438V23.2495H112.201H113.161ZM130.442 23.2495H126.684V39.9836H130.442V23.2495ZM138.464 23.2495L133.348 39.9836H137.294L138.389 36.0936H144.235L145.338 39.9836H149.284L144.167 23.2495H138.464ZM139.205 33.1934H143.413L142.247 29.0847L141.392 25.6664H141.205L140.362 29.0847L139.205 33.1934ZM36.2465 14.4192H37.2756C38.4684 14.4192 39.4433 14.2469 40.1996 13.902C40.9559 13.5571 41.5154 13.0054 41.8779 12.2467C42.2404 11.4879 42.4219 10.488 42.4219 9.2465C42.4219 8.02011 42.2463 7.0489 41.8953 6.33232C41.5446 5.61574 40.991 5.10422 40.2347 4.79777C39.4784 4.49103 38.4883 4.3378 37.2638 4.3378H36.2465V14.4192ZM37.8369 1.03857H36.2465H35.2872H32.5273V17.7529H35.3811H36.2465H37.9422C39.6421 17.7529 41.1136 17.414 42.3572 16.7356C43.6011 16.0574 44.5621 15.0802 45.2401 13.8043C45.9186 12.5284 46.2578 10.9938 46.2578 9.20035C46.2578 7.42257 45.9304 5.92818 45.2752 4.71717C44.6205 3.50644 43.6671 2.5905 42.4159 1.9699C41.1644 1.34901 39.6383 1.03857 37.8369 1.03857ZM48.5391 1.03857V17.7529H59.1704V14.4309H52.1999V10.8443H58.1764V7.55672H52.1999V4.3378H58.9598V1.03857H48.5391ZM65.4965 1.03857H61.7422V17.7529H65.4965V1.03857ZM68.6055 1.03857V17.7529H72.2197V9.60279L71.7519 4.63685H71.8687L73.0965 7.82102L77.9738 17.7529H82.7572V1.03857H79.1433V10.1775L79.6344 14.4653H79.5527L78.2547 10.9707L73.3541 1.03857H68.6055Z" fill="black"/>
</svg>
