<svg width="40" height="43" viewBox="0 0 40 43" fill="none" xmlns="http://www.w3.org/2000/svg">
<path d="M22.9 40.9834C19.9566 40.9834 17.2201 40.498 14.69 39.5283C12.1593 38.5581 9.94317 37.1911 8.04107 35.4274C6.13896 33.6637 4.65854 31.5913 3.59981 29.2097C2.54108 26.8287 2.01172 24.245 2.01172 21.4584C2.01172 18.6363 2.54108 16.0431 3.59981 13.6798C4.65854 11.3166 6.12994 9.27022 8.014 7.54198C9.89866 5.81314 12.0967 4.46391 14.6088 3.49365C17.1215 2.52399 19.8489 2.03857 22.7923 2.03857C25.7712 2.03857 28.4986 2.49739 30.9752 3.41442C33.4512 4.33146 35.6047 5.60148 37.4353 7.22448L30.275 14.3148C29.4136 13.3978 28.3639 12.6747 27.1259 12.1455C25.8873 11.6163 24.443 11.3515 22.7923 11.3515C21.3564 11.3515 20.0372 11.5809 18.8353 12.0397C17.6328 12.4979 16.6011 13.1684 15.7397 14.0499C14.8783 14.9321 14.2052 15.9993 13.7209 17.2516C13.2361 18.5039 12.9942 19.9057 12.9942 21.4584C12.9942 23.0453 13.2361 24.4655 13.7209 25.7178C14.2052 26.9701 14.8783 28.0373 15.7397 28.9188C16.6011 29.801 17.6328 30.4798 18.8353 30.9563C20.0372 31.4323 21.3564 31.6706 22.7923 31.6706C24.4069 31.6706 25.8518 31.4234 27.1259 30.9297C28.4 30.436 29.5032 29.7129 30.4368 28.7604L37.6506 35.8507C35.7485 37.4731 33.613 38.7343 31.2441 39.6342C28.8752 40.5335 26.0936 40.9834 22.9 40.9834Z" stroke="black" stroke-width="3" stroke-miterlimit="2" stroke-linejoin="round"/>
</svg>
