<svg width="35" height="41" viewBox="0 0 35 41" fill="none" xmlns="http://www.w3.org/2000/svg">
<path fill-rule="evenodd" clip-rule="evenodd" d="M20.1384 39.3482H2.48047V1.67334H20.7845C23.1173 1.67334 25.1535 2.10554 26.8944 2.96996C28.6353 3.83438 29.99 5.01571 30.9591 6.51513C31.9282 8.01456 32.4125 9.73392 32.4125 11.6744C32.4125 14.3552 31.4434 16.5422 29.5058 18.2356C29.0654 18.6199 28.5794 18.967 28.047 19.2768C28.8495 19.7025 29.5689 20.2021 30.2054 20.7756C32.3589 22.7155 33.4357 25.2024 33.4357 28.2361C33.4357 30.4232 32.8793 32.3548 31.7664 34.0304C30.6541 35.706 29.1015 37.0109 27.1098 37.9457C25.118 38.8805 22.7943 39.3482 20.1384 39.3482ZM13.0317 9.29285V16.2779H17.7695C18.9178 16.2779 19.8689 15.9953 20.6227 15.4313C21.3764 14.8666 21.753 13.985 21.753 12.7854C21.753 11.5857 21.3764 10.7042 20.6227 10.1395C19.8689 9.57548 18.9178 9.29285 17.7695 9.29285H13.0317ZM13.0317 23.58V31.7286H18.2537C19.6175 31.7286 20.7123 31.3668 21.5376 30.6437C22.3635 29.9206 22.7762 28.9243 22.7762 27.6543C22.7762 26.8076 22.5879 26.0757 22.2108 25.4584C21.8342 24.8411 21.3138 24.3734 20.6497 24.0559C19.9856 23.7384 19.1874 23.58 18.2537 23.58H13.0317Z" stroke="black" stroke-width="3" stroke-miterlimit="2" stroke-linejoin="round"/>
</svg>
