<svg width="37" height="42" viewBox="0 0 37 42" fill="none" xmlns="http://www.w3.org/2000/svg">
<path d="M18.7457 39.9832C15.3722 39.9832 12.4294 39.3038 9.91677 37.9457C7.40469 36.5876 5.44904 34.7092 4.04923 32.3104C2.64942 29.9117 1.94922 27.16 1.94922 24.0559V1.67334H12.7164V25.0084C12.7164 26.2081 12.9859 27.231 13.5243 28.0776C14.0627 28.9243 14.7893 29.5676 15.7043 30.0087C16.6192 30.4498 17.6335 30.6703 18.7457 30.6703C19.8947 30.6703 20.9083 30.4498 21.7878 30.0087C22.6672 29.5676 23.3578 28.9332 23.8601 28.1037C24.363 27.2747 24.6139 26.2607 24.6139 25.0616V1.67334H35.4352V24.1091C35.4352 27.2132 34.744 29.9561 33.3622 32.3371C31.9805 34.718 30.0423 36.5876 27.5482 37.9457C25.0536 39.3038 22.1198 39.9832 18.7457 39.9832Z" stroke="black" stroke-width="3" stroke-miterlimit="2" stroke-linejoin="round"/>
</svg>
