<svg width="1441" height="96" viewBox="0 0 1441 96" fill="none" xmlns="http://www.w3.org/2000/svg">
<mask id="path-1-inside-1_813_228" fill="white">
<path d="M0.429688 0H1440.43V96H0.429688V0Z"/>
</mask>
<path d="M0.429688 0H1440.43V96H0.429688V0Z" fill="black"/>
<path d="M1440.43 95H0.429688V97H1440.43V95Z" fill="white" fill-opacity="0.25" mask="url(#path-1-inside-1_813_228)"/>
<rect x="64.4297" y="20" width="56" height="56" rx="11.2" fill="white"/>
<path d="M99.6094 56.2225L103.743 48.9802L103.776 51.5429L99.6651 44.0667H103.498L104.735 46.7519L105.437 48.5123L106.049 46.763L107.264 44.0667H111.097L106.985 51.5317V48.9579L111.141 56.2225H107.197L106.049 53.6933L105.292 51.9328L104.679 53.7044L103.554 56.2225H99.6094Z" fill="black"/>
<path d="M89.1553 56.2226C89.5193 55.9477 89.9501 55.5875 90.4478 55.1418C90.9529 54.6961 91.4728 54.191 92.0076 53.6265C92.5425 53.0545 93.0401 52.4492 93.5007 51.8104C93.9686 51.1641 94.3474 50.503 94.6371 49.8271C94.9343 49.1512 95.0865 48.4864 95.094 47.8327L95.2277 47.8216C95.1459 48.0592 95.0271 48.3601 94.8711 48.724C94.7226 49.0806 94.5109 49.4371 94.236 49.7937C93.9612 50.1502 93.5972 50.4473 93.1441 50.685C92.6984 50.9227 92.1339 51.0416 91.4505 51.0416C90.6186 51.0416 89.861 50.841 89.1776 50.4399C88.5017 50.0314 87.9594 49.4223 87.5509 48.6126C87.1498 47.803 86.9492 46.7928 86.9492 45.582C86.9492 44.7204 87.0978 43.9367 87.3949 43.2311C87.6994 42.518 88.1154 41.9052 88.6428 41.3927C89.1776 40.8727 89.7867 40.4753 90.4701 40.2005C91.1609 39.9182 91.8962 39.7771 92.6762 39.7771C93.7755 39.7771 94.7634 40.0408 95.6399 40.5682C96.5164 41.0956 97.2109 41.8681 97.7234 42.8857C98.236 43.8959 98.4922 45.1401 98.4922 46.6182C98.4922 47.7918 98.3214 48.9023 97.9797 49.9497C97.638 50.9896 97.2109 51.9366 96.6984 52.7908C96.1933 53.6376 95.677 54.3581 95.1497 54.9524C94.6223 55.5392 94.1729 55.9626 93.8015 56.2226H89.1553ZM92.5759 48.4566C92.9696 48.4566 93.315 48.4195 93.6121 48.3452C93.9166 48.2709 94.1803 48.1632 94.4032 48.0221C94.6334 47.881 94.834 47.7101 95.0048 47.5096C95.0717 47.361 95.1088 47.127 95.1162 46.8076C95.1311 46.4808 95.1385 46.2431 95.1385 46.0946C95.1385 45.5078 95.0457 44.9729 94.86 44.4901C94.6817 44.0073 94.4106 43.6211 94.0466 43.3314C93.6901 43.0417 93.2407 42.8968 92.6984 42.8968C92.1711 42.8968 91.7365 43.0194 91.3948 43.2645C91.0532 43.5096 90.8006 43.8328 90.6372 44.2339C90.4738 44.635 90.3921 45.0769 90.3921 45.5597C90.3921 46.4882 90.5889 47.205 90.9826 47.7101C91.3837 48.2078 91.9148 48.4566 92.5759 48.4566Z" fill="black"/>
<path d="M75.9248 56.2226C76.2888 55.9477 76.7196 55.5875 77.2173 55.1418C77.7224 54.6961 78.2424 54.191 78.7772 53.6265C79.312 53.0545 79.8097 52.4492 80.2702 51.8104C80.7382 51.1641 81.117 50.503 81.4067 49.8271C81.7038 49.1512 81.8561 48.4864 81.8635 47.8327L81.9972 47.8216C81.9155 48.0592 81.7966 48.3601 81.6406 48.724C81.4921 49.0806 81.2804 49.4371 81.0056 49.7937C80.7307 50.1502 80.3668 50.4473 79.9136 50.685C79.468 50.9227 78.9035 51.0416 78.2201 51.0416C77.3882 51.0416 76.6305 50.841 75.9471 50.4399C75.2712 50.0314 74.7289 49.4223 74.3204 48.6126C73.9193 47.803 73.7188 46.7928 73.7188 45.582C73.7188 44.7204 73.8673 43.9367 74.1644 43.2311C74.469 42.518 74.8849 41.9052 75.4123 41.3927C75.9471 40.8727 76.5562 40.4753 77.2396 40.2005C77.9304 39.9182 78.6658 39.7771 79.4457 39.7771C80.545 39.7771 81.5329 40.0408 82.4094 40.5682C83.2859 41.0956 83.9804 41.8681 84.493 42.8857C85.0055 43.8959 85.2618 45.1401 85.2618 46.6182C85.2618 47.7918 85.0909 48.9023 84.7492 49.9497C84.4076 50.9896 83.9804 51.9366 83.4679 52.7908C82.9628 53.6376 82.4466 54.3581 81.9192 54.9524C81.3918 55.5392 80.9424 55.9626 80.571 56.2226H75.9248ZM79.3454 48.4566C79.7391 48.4566 80.0845 48.4195 80.3816 48.3452C80.6862 48.2709 80.9498 48.1632 81.1727 48.0221C81.403 47.881 81.6035 47.7101 81.7743 47.5096C81.8412 47.361 81.8783 47.127 81.8858 46.8076C81.9006 46.4808 81.9081 46.2431 81.9081 46.0946C81.9081 45.5078 81.8152 44.9729 81.6295 44.4901C81.4512 44.0073 81.1801 43.6211 80.8161 43.3314C80.4596 43.0417 80.0102 42.8968 79.468 42.8968C78.9406 42.8968 78.5061 43.0194 78.1644 43.2645C77.8227 43.5096 77.5701 43.8328 77.4067 44.2339C77.2433 44.635 77.1616 45.0769 77.1616 45.5597C77.1616 46.4882 77.3584 47.205 77.7521 47.7101C78.1532 48.2078 78.6843 48.4566 79.3454 48.4566Z" fill="black"/>
<path d="M135.194 55L135.185 52.2933H136.706C137.658 52.2933 138.436 52.1533 139.04 51.8733C139.643 51.5933 140.088 51.1453 140.374 50.5293C140.667 49.9133 140.813 49.1013 140.813 48.0933C140.813 47.0978 140.673 46.3107 140.393 45.732C140.113 45.1471 139.671 44.7302 139.068 44.4813C138.464 44.2324 137.674 44.108 136.697 44.108H135.12V41.4293H137.154C138.592 41.4293 139.808 41.6813 140.804 42.1853C141.805 42.6893 142.568 43.4329 143.09 44.416C143.613 45.3991 143.874 46.6124 143.874 48.056C143.874 49.512 143.604 50.7596 143.062 51.7987C142.521 52.8316 141.752 53.6249 140.757 54.1787C139.768 54.7262 138.595 55 137.238 55H135.194ZM132.917 55V41.4293H135.885V55H132.917ZM150.068 55.14C149.035 55.14 148.154 54.9347 147.426 54.524C146.698 54.1133 146.141 53.5191 145.756 52.7413C145.37 51.9573 145.177 51.0116 145.177 49.904C145.177 48.7591 145.382 47.7947 145.793 47.0107C146.204 46.2204 146.782 45.6231 147.529 45.2187C148.276 44.8142 149.15 44.612 150.152 44.612C151.122 44.612 151.937 44.7956 152.597 45.1627C153.263 45.5298 153.767 46.0711 154.109 46.7867C154.451 47.5022 154.622 48.3827 154.622 49.428C154.622 49.5587 154.616 49.7111 154.604 49.8853C154.597 50.0533 154.588 50.2462 154.576 50.464H148.024C148.092 51.3102 148.297 51.9293 148.64 52.3213C148.982 52.7071 149.461 52.9 150.077 52.9C150.587 52.9 150.973 52.788 151.234 52.564C151.502 52.34 151.661 52.0444 151.71 51.6773H154.492C154.436 52.3804 154.221 52.9933 153.848 53.516C153.481 54.0324 152.977 54.4338 152.336 54.72C151.695 55 150.939 55.14 150.068 55.14ZM149.209 48.8307H151.832C151.807 48.1773 151.648 47.6889 151.356 47.3653C151.069 47.0418 150.628 46.88 150.03 46.88C149.327 46.88 148.814 47.132 148.49 47.636C148.167 48.1338 148.002 48.8431 147.996 49.764C148.045 49.4093 148.167 49.1667 148.36 49.036C148.553 48.8991 148.836 48.8307 149.209 48.8307ZM160.234 55.1587C159.357 55.1587 158.601 55.0311 157.966 54.776C157.338 54.5209 156.849 54.1351 156.501 53.6187C156.152 53.096 155.959 52.4333 155.922 51.6307H158.75C158.806 52.1284 158.965 52.4956 159.226 52.732C159.494 52.9684 159.851 53.0867 160.299 53.0867C160.523 53.0867 160.738 53.0618 160.943 53.012C161.149 52.956 161.317 52.8627 161.447 52.732C161.578 52.5951 161.643 52.4084 161.643 52.172C161.643 51.9791 161.594 51.8236 161.494 51.7053C161.401 51.5809 161.261 51.4782 161.074 51.3973C160.894 51.3102 160.673 51.2324 160.411 51.164C160.15 51.0893 159.854 51.0022 159.525 50.9027C158.94 50.7284 158.392 50.5169 157.882 50.268C157.378 50.0191 156.97 49.6862 156.659 49.2693C156.348 48.8524 156.193 48.3049 156.193 47.6267C156.193 46.6124 156.563 45.8596 157.303 45.368C158.05 44.8764 159.027 44.6307 160.234 44.6307C160.943 44.6307 161.581 44.7271 162.147 44.92C162.714 45.1129 163.18 45.4551 163.547 45.9467C163.921 46.4382 164.16 47.132 164.266 48.028L161.457 48.0093C161.401 47.6111 161.304 47.3156 161.167 47.1227C161.03 46.9236 160.875 46.7929 160.701 46.7307C160.526 46.6622 160.346 46.628 160.159 46.628C159.948 46.628 159.755 46.6622 159.581 46.7307C159.413 46.7991 159.279 46.8987 159.179 47.0293C159.08 47.16 159.03 47.3249 159.03 47.524C159.03 47.7604 159.105 47.9627 159.254 48.1307C159.403 48.2987 159.63 48.448 159.935 48.5787C160.24 48.7031 160.629 48.8307 161.102 48.9613C161.413 49.0422 161.762 49.1418 162.147 49.26C162.539 49.3782 162.913 49.5431 163.267 49.7547C163.628 49.9662 163.924 50.2524 164.154 50.6133C164.39 50.9742 164.509 51.4409 164.509 52.0133C164.509 53.0089 164.126 53.7836 163.361 54.3373C162.595 54.8849 161.553 55.1587 160.234 55.1587ZM166.302 55V44.8173H169.195V55H166.302ZM167.758 43.6507C167.272 43.6507 166.859 43.4827 166.516 43.1467C166.174 42.8044 166.003 42.3689 166.003 41.84C166.003 41.3111 166.174 40.8818 166.516 40.552C166.859 40.216 167.272 40.048 167.758 40.048C168.237 40.048 168.647 40.216 168.99 40.552C169.332 40.8818 169.503 41.3111 169.503 41.84C169.503 42.3689 169.332 42.8044 168.99 43.1467C168.647 43.4827 168.237 43.6507 167.758 43.6507ZM175.91 59.1907C174.902 59.2031 174.044 59.0507 173.334 58.7333C172.625 58.4222 172.096 57.9804 171.748 57.408C171.405 56.8356 171.278 56.1791 171.365 55.4387H174.184C174.177 55.7187 174.224 55.9676 174.324 56.1853C174.423 56.4093 174.604 56.5867 174.865 56.7173C175.126 56.848 175.493 56.9133 175.966 56.9133C176.402 56.9133 176.738 56.848 176.974 56.7173C177.217 56.5929 177.388 56.4031 177.488 56.148C177.587 55.8929 177.637 55.5756 177.637 55.196V52.3307C177.55 52.872 177.388 53.3169 177.152 53.6653C176.921 54.0138 176.62 54.2751 176.246 54.4493C175.873 54.6173 175.428 54.7013 174.912 54.7013C174.296 54.7013 173.748 54.5738 173.269 54.3187C172.796 54.0636 172.392 53.712 172.056 53.264C171.726 52.8098 171.474 52.2871 171.3 51.696C171.132 51.0987 171.048 50.4609 171.048 49.7827C171.048 48.6813 171.216 47.748 171.552 46.9827C171.894 46.2111 172.361 45.6262 172.952 45.228C173.549 44.8236 174.23 44.6213 174.996 44.6213C175.487 44.6213 175.91 44.6929 176.265 44.836C176.626 44.9791 176.925 45.172 177.161 45.4147C177.397 45.6511 177.569 45.9156 177.674 46.208L177.777 44.8173H180.521V54.9253C180.521 55.8338 180.347 56.6022 179.998 57.2307C179.65 57.8591 179.133 58.3382 178.449 58.668C177.771 58.9978 176.925 59.172 175.91 59.1907ZM175.873 52.3307C176.19 52.3307 176.467 52.2964 176.704 52.228C176.946 52.1533 177.145 52.0569 177.301 51.9387C177.457 51.8142 177.569 51.6836 177.637 51.5467V48.0187C177.575 47.8258 177.469 47.6547 177.32 47.5053C177.17 47.356 176.977 47.2378 176.741 47.1507C176.511 47.0573 176.243 47.0107 175.938 47.0107C175.316 47.0107 174.831 47.2378 174.482 47.692C174.134 48.1462 173.96 48.84 173.96 49.7733C173.96 50.5822 174.118 51.2107 174.436 51.6587C174.753 52.1067 175.232 52.3307 175.873 52.3307ZM182.882 55V44.8173H185.476L185.719 48.6533L185.607 47.8787C185.682 47.3187 185.828 46.7898 186.046 46.292C186.264 45.788 186.587 45.3804 187.016 45.0693C187.452 44.7582 188.028 44.6027 188.743 44.6027C189.67 44.6027 190.414 44.9044 190.974 45.508C191.54 46.1053 191.823 47.02 191.823 48.252V55H188.92V49.3347C188.92 48.6876 188.864 48.196 188.752 47.86C188.64 47.5178 188.482 47.2844 188.276 47.16C188.071 47.0356 187.828 46.9733 187.548 46.9733C187.15 46.9733 186.799 47.1009 186.494 47.356C186.189 47.6049 185.956 47.9004 185.794 48.2427V55H182.882ZM198.466 55.14C197.433 55.14 196.553 54.9347 195.825 54.524C195.097 54.1133 194.54 53.5191 194.154 52.7413C193.768 51.9573 193.575 51.0116 193.575 49.904C193.575 48.7591 193.781 47.7947 194.191 47.0107C194.602 46.2204 195.181 45.6231 195.927 45.2187C196.674 44.8142 197.548 44.612 198.55 44.612C199.521 44.612 200.336 44.7956 200.995 45.1627C201.661 45.5298 202.165 46.0711 202.507 46.7867C202.85 47.5022 203.021 48.3827 203.021 49.428C203.021 49.5587 203.015 49.7111 203.002 49.8853C202.996 50.0533 202.987 50.2462 202.974 50.464H196.422C196.491 51.3102 196.696 51.9293 197.038 52.3213C197.38 52.7071 197.859 52.9 198.475 52.9C198.986 52.9 199.371 52.788 199.633 52.564C199.9 52.34 200.059 52.0444 200.109 51.6773H202.89C202.834 52.3804 202.619 52.9933 202.246 53.516C201.879 54.0324 201.375 54.4338 200.734 54.72C200.093 55 199.337 55.14 198.466 55.14ZM197.607 48.8307H200.23C200.205 48.1773 200.047 47.6889 199.754 47.3653C199.468 47.0418 199.026 46.88 198.429 46.88C197.726 46.88 197.212 47.132 196.889 47.636C196.565 48.1338 196.4 48.8431 196.394 49.764C196.444 49.4093 196.565 49.1667 196.758 49.036C196.951 48.8991 197.234 48.8307 197.607 48.8307ZM204.793 55V44.8173H207.388L207.631 48.8027L207.463 48.196C207.519 47.6609 207.621 47.1756 207.771 46.74C207.92 46.2982 208.113 45.9187 208.349 45.6013C208.586 45.284 208.869 45.0382 209.199 44.864C209.535 44.6898 209.917 44.6027 210.347 44.6027C210.471 44.6027 210.595 44.6089 210.72 44.6213C210.851 44.6338 210.966 44.6556 211.065 44.6867V47.7013C210.854 47.6453 210.648 47.608 210.449 47.5893C210.256 47.5644 210.063 47.552 209.871 47.552C209.528 47.552 209.217 47.5831 208.937 47.6453C208.663 47.7076 208.424 47.804 208.219 47.9347C208.013 48.0591 207.842 48.2209 207.705 48.42V55H204.793ZM216.362 55.1587C215.484 55.1587 214.728 55.0311 214.094 54.776C213.465 54.5209 212.977 54.1351 212.628 53.6187C212.28 53.096 212.087 52.4333 212.05 51.6307H214.878C214.934 52.1284 215.092 52.4956 215.354 52.732C215.621 52.9684 215.979 53.0867 216.427 53.0867C216.651 53.0867 216.866 53.0618 217.071 53.012C217.276 52.956 217.444 52.8627 217.575 52.732C217.706 52.5951 217.771 52.4084 217.771 52.172C217.771 51.9791 217.721 51.8236 217.622 51.7053C217.528 51.5809 217.388 51.4782 217.202 51.3973C217.021 51.3102 216.8 51.2324 216.539 51.164C216.278 51.0893 215.982 51.0022 215.652 50.9027C215.067 50.7284 214.52 50.5169 214.01 50.268C213.506 50.0191 213.098 49.6862 212.787 49.2693C212.476 48.8524 212.32 48.3049 212.32 47.6267C212.32 46.6124 212.69 45.8596 213.431 45.368C214.178 44.8764 215.154 44.6307 216.362 44.6307C217.071 44.6307 217.709 44.7271 218.275 44.92C218.841 45.1129 219.308 45.4551 219.675 45.9467C220.048 46.4382 220.288 47.132 220.394 48.028L217.584 48.0093C217.528 47.6111 217.432 47.3156 217.295 47.1227C217.158 46.9236 217.002 46.7929 216.828 46.7307C216.654 46.6622 216.474 46.628 216.287 46.628C216.075 46.628 215.882 46.6622 215.708 46.7307C215.54 46.7991 215.406 46.8987 215.307 47.0293C215.207 47.16 215.158 47.3249 215.158 47.524C215.158 47.7604 215.232 47.9627 215.382 48.1307C215.531 48.2987 215.758 48.448 216.063 48.5787C216.368 48.7031 216.757 48.8307 217.23 48.9613C217.541 49.0422 217.889 49.1418 218.275 49.26C218.667 49.3782 219.04 49.5431 219.395 49.7547C219.756 49.9662 220.051 50.2524 220.282 50.6133C220.518 50.9742 220.636 51.4409 220.636 52.0133C220.636 53.0089 220.254 53.7836 219.488 54.3373C218.723 54.8849 217.681 55.1587 216.362 55.1587Z" fill="white"/>
<path d="M580.615 41.9091H582.507L586.955 52.7756H587.109L591.558 41.9091H593.45V55H591.967V45.054H591.839L587.748 55H586.316L582.225 45.054H582.097V55H580.615V41.9091ZM600.54 55.2045C599.594 55.2045 598.778 54.9957 598.092 54.5781C597.41 54.1562 596.884 53.5682 596.513 52.8139C596.147 52.0554 595.963 51.1733 595.963 50.1676C595.963 49.1619 596.147 48.2756 596.513 47.5085C596.884 46.7372 597.4 46.1364 598.06 45.706C598.725 45.2713 599.5 45.054 600.387 45.054C600.898 45.054 601.403 45.1392 601.902 45.3097C602.4 45.4801 602.854 45.7571 603.263 46.1406C603.672 46.5199 603.998 47.0227 604.241 47.6491C604.484 48.2756 604.605 49.0469 604.605 49.9631V50.6023H597.037V49.2983H603.071C603.071 48.7443 602.961 48.25 602.739 47.8153C602.522 47.3807 602.211 47.0376 601.806 46.7862C601.405 46.5348 600.932 46.4091 600.387 46.4091C599.786 46.4091 599.266 46.5582 598.827 46.8565C598.392 47.1506 598.058 47.5341 597.824 48.0071C597.589 48.4801 597.472 48.9872 597.472 49.5284V50.3977C597.472 51.1392 597.6 51.7678 597.855 52.2834C598.115 52.7947 598.475 53.1847 598.936 53.4531C599.396 53.7173 599.931 53.8494 600.54 53.8494C600.936 53.8494 601.294 53.794 601.614 53.6832C601.938 53.5682 602.217 53.3977 602.451 53.1719C602.686 52.9418 602.867 52.6562 602.995 52.3153L604.452 52.7244C604.299 53.2188 604.041 53.6534 603.679 54.0284C603.316 54.3991 602.869 54.6889 602.336 54.8977C601.804 55.1023 601.205 55.2045 600.54 55.2045ZM606.9 55V45.1818H608.358V46.7159H608.485C608.69 46.1918 609.02 45.7848 609.476 45.495C609.932 45.201 610.48 45.054 611.119 45.054C611.767 45.054 612.306 45.201 612.736 45.495C613.171 45.7848 613.51 46.1918 613.752 46.7159H613.855C614.106 46.2088 614.483 45.8061 614.986 45.5078C615.489 45.2053 616.092 45.054 616.795 45.054C617.673 45.054 618.391 45.3288 618.949 45.8786C619.507 46.424 619.787 47.2741 619.787 48.429V55H618.278V48.429C618.278 47.7045 618.08 47.1868 617.684 46.8757C617.287 46.5646 616.821 46.4091 616.284 46.4091C615.593 46.4091 615.059 46.6179 614.679 47.0355C614.3 47.4489 614.11 47.973 614.11 48.608V55H612.576V48.2756C612.576 47.7173 612.395 47.2678 612.033 46.9268C611.671 46.5817 611.204 46.4091 610.633 46.4091C610.241 46.4091 609.875 46.5135 609.534 46.7223C609.197 46.9311 608.924 47.2209 608.716 47.5916C608.511 47.9581 608.409 48.3821 608.409 48.8636V55H606.9ZM622.749 55V41.9091H624.258V46.7415H624.386C624.496 46.571 624.65 46.3537 624.846 46.0895C625.046 45.821 625.332 45.5824 625.702 45.3736C626.077 45.1605 626.585 45.054 627.224 45.054C628.05 45.054 628.779 45.2607 629.41 45.674C630.04 46.0874 630.533 46.6733 630.886 47.4318C631.24 48.1903 631.417 49.0852 631.417 50.1165C631.417 51.1562 631.24 52.0575 630.886 52.8203C630.533 53.5788 630.043 54.1669 629.416 54.5845C628.79 54.9979 628.067 55.2045 627.249 55.2045C626.619 55.2045 626.114 55.1001 625.734 54.8913C625.355 54.6783 625.063 54.4375 624.859 54.169C624.654 53.8963 624.496 53.6705 624.386 53.4915H624.207V55H622.749ZM624.232 50.0909C624.232 50.8324 624.341 51.4865 624.558 52.0533C624.776 52.6158 625.093 53.0568 625.511 53.3764C625.928 53.6918 626.44 53.8494 627.045 53.8494C627.675 53.8494 628.202 53.6832 628.624 53.3509C629.05 53.0142 629.369 52.5625 629.582 51.9957C629.8 51.4247 629.908 50.7898 629.908 50.0909C629.908 49.4006 629.802 48.7784 629.589 48.2244C629.38 47.6662 629.063 47.2251 628.636 46.9013C628.214 46.5732 627.684 46.4091 627.045 46.4091C626.431 46.4091 625.915 46.5646 625.498 46.8757C625.08 47.1825 624.765 47.6129 624.552 48.1669C624.339 48.7166 624.232 49.358 624.232 50.0909ZM637.841 55.2045C636.895 55.2045 636.079 54.9957 635.393 54.5781C634.711 54.1562 634.185 53.5682 633.814 52.8139C633.447 52.0554 633.264 51.1733 633.264 50.1676C633.264 49.1619 633.447 48.2756 633.814 47.5085C634.185 46.7372 634.7 46.1364 635.361 45.706C636.026 45.2713 636.801 45.054 637.688 45.054C638.199 45.054 638.704 45.1392 639.202 45.3097C639.701 45.4801 640.155 45.7571 640.564 46.1406C640.973 46.5199 641.299 47.0227 641.542 47.6491C641.785 48.2756 641.906 49.0469 641.906 49.9631V50.6023H634.338V49.2983H640.372C640.372 48.7443 640.261 48.25 640.04 47.8153C639.822 47.3807 639.511 47.0376 639.107 46.7862C638.706 46.5348 638.233 46.4091 637.688 46.4091C637.087 46.4091 636.567 46.5582 636.128 46.8565C635.693 47.1506 635.359 47.5341 635.124 48.0071C634.89 48.4801 634.773 48.9872 634.773 49.5284V50.3977C634.773 51.1392 634.901 51.7678 635.156 52.2834C635.416 52.7947 635.776 53.1847 636.237 53.4531C636.697 53.7173 637.232 53.8494 637.841 53.8494C638.237 53.8494 638.595 53.794 638.915 53.6832C639.239 53.5682 639.518 53.3977 639.752 53.1719C639.987 52.9418 640.168 52.6562 640.295 52.3153L641.753 52.7244C641.599 53.2188 641.342 53.6534 640.979 54.0284C640.617 54.3991 640.17 54.6889 639.637 54.8977C639.104 55.1023 638.506 55.2045 637.841 55.2045ZM644.201 55V45.1818H645.658V46.6648H645.761C645.94 46.179 646.263 45.7848 646.732 45.4822C647.201 45.1797 647.729 45.0284 648.317 45.0284C648.428 45.0284 648.567 45.0305 648.733 45.0348C648.899 45.0391 649.025 45.0455 649.11 45.054V46.5881C649.059 46.5753 648.942 46.5561 648.759 46.5305C648.58 46.5007 648.39 46.4858 648.19 46.4858C647.712 46.4858 647.286 46.5859 646.911 46.7862C646.54 46.9822 646.246 47.255 646.029 47.6044C645.816 47.9496 645.71 48.3437 645.71 48.7869V55H644.201ZM657.853 47.3807L656.498 47.7642C656.412 47.5384 656.287 47.3189 656.121 47.1058C655.959 46.8885 655.737 46.7095 655.456 46.5689C655.175 46.4283 654.814 46.358 654.376 46.358C653.775 46.358 653.274 46.4964 652.873 46.7734C652.477 47.0462 652.279 47.3935 652.279 47.8153C652.279 48.1903 652.415 48.4865 652.688 48.7038C652.961 48.9212 653.387 49.1023 653.966 49.2472L655.424 49.6051C656.302 49.8182 656.956 50.1442 657.386 50.5831C657.817 51.0178 658.032 51.5781 658.032 52.2642C658.032 52.8267 657.87 53.3295 657.546 53.7727C657.226 54.2159 656.779 54.5653 656.204 54.821C655.628 55.0767 654.959 55.2045 654.197 55.2045C653.195 55.2045 652.366 54.9872 651.71 54.5526C651.054 54.1179 650.638 53.483 650.464 52.6477L651.895 52.2898C652.032 52.8182 652.29 53.2145 652.669 53.4787C653.052 53.7429 653.553 53.875 654.171 53.875C654.874 53.875 655.432 53.7259 655.846 53.4276C656.263 53.125 656.472 52.7628 656.472 52.3409C656.472 52 656.353 51.7145 656.114 51.4844C655.876 51.25 655.509 51.0753 655.015 50.9602L653.378 50.5767C652.479 50.3636 651.819 50.0334 651.397 49.5859C650.979 49.1342 650.77 48.5696 650.77 47.892C650.77 47.3381 650.926 46.848 651.237 46.4219C651.552 45.9957 651.981 45.6612 652.522 45.4183C653.067 45.1754 653.685 45.054 654.376 45.054C655.347 45.054 656.11 45.267 656.664 45.6932C657.222 46.1193 657.618 46.6818 657.853 47.3807Z" fill="white"/>
<path d="M684.615 55V41.9091H689.038C690.065 41.9091 690.904 42.0945 691.556 42.4652C692.213 42.8317 692.698 43.3281 693.014 43.9545C693.329 44.581 693.487 45.2798 693.487 46.0511C693.487 46.8224 693.329 47.5234 693.014 48.1541C692.703 48.7848 692.221 49.2876 691.569 49.6626C690.917 50.0334 690.082 50.2188 689.063 50.2188H685.893V48.8125H689.012C689.715 48.8125 690.28 48.6911 690.706 48.4482C691.132 48.2053 691.441 47.8771 691.633 47.4638C691.829 47.0462 691.927 46.5753 691.927 46.0511C691.927 45.527 691.829 45.0582 691.633 44.6449C691.441 44.2315 691.13 43.9077 690.7 43.6733C690.269 43.4347 689.698 43.3153 688.987 43.3153H686.2V55H684.615ZM697.344 41.9091V55H695.836V41.9091H697.344ZM702.996 55.2301C702.374 55.2301 701.81 55.1129 701.303 54.8786C700.795 54.6399 700.393 54.2969 700.094 53.8494C699.796 53.3977 699.647 52.8523 699.647 52.2131C699.647 51.6506 699.758 51.1946 699.979 50.8452C700.201 50.4915 700.497 50.2145 700.868 50.0142C701.239 49.8139 701.648 49.6648 702.095 49.5668C702.547 49.4645 703.001 49.3835 703.457 49.3239C704.053 49.2472 704.537 49.1896 704.908 49.1513C705.283 49.1087 705.555 49.0384 705.726 48.9403C705.901 48.8423 705.988 48.6719 705.988 48.429V48.3778C705.988 47.7472 705.815 47.2571 705.47 46.9077C705.129 46.5582 704.612 46.3835 703.917 46.3835C703.197 46.3835 702.632 46.5412 702.223 46.8565C701.814 47.1719 701.526 47.5085 701.36 47.8665L699.928 47.3551C700.184 46.7585 700.525 46.294 700.951 45.9616C701.381 45.625 701.85 45.3906 702.357 45.2585C702.869 45.1222 703.371 45.054 703.866 45.054C704.181 45.054 704.543 45.0923 704.952 45.169C705.366 45.2415 705.764 45.3928 706.148 45.6229C706.536 45.853 706.857 46.2003 707.113 46.6648C707.369 47.1293 707.496 47.7514 707.496 48.5312V55H705.988V53.6705H705.911C705.809 53.8835 705.638 54.1115 705.4 54.3544C705.161 54.5973 704.844 54.804 704.447 54.9744C704.051 55.1449 703.567 55.2301 702.996 55.2301ZM703.227 53.875C703.823 53.875 704.326 53.7578 704.735 53.5234C705.148 53.2891 705.46 52.9865 705.668 52.6158C705.881 52.245 705.988 51.8551 705.988 51.446V50.0653C705.924 50.142 705.783 50.2124 705.566 50.2763C705.353 50.3359 705.106 50.3892 704.825 50.4361C704.548 50.4787 704.277 50.517 704.013 50.5511C703.753 50.581 703.542 50.6065 703.38 50.6278C702.988 50.679 702.621 50.7621 702.281 50.8771C701.944 50.9879 701.671 51.1562 701.462 51.3821C701.258 51.6037 701.156 51.9062 701.156 52.2898C701.156 52.8139 701.349 53.2102 701.737 53.4787C702.129 53.7429 702.626 53.875 703.227 53.875ZM711.758 49.0938V55H710.25V45.1818H711.707V46.7159H711.835C712.065 46.2173 712.415 45.8168 712.883 45.5142C713.352 45.2074 713.957 45.054 714.699 45.054C715.363 45.054 715.945 45.1903 716.444 45.4631C716.942 45.7315 717.33 46.1406 717.607 46.6903C717.884 47.2358 718.023 47.9261 718.023 48.7614V55H716.514V48.8636C716.514 48.0923 716.314 47.4915 715.913 47.0611C715.513 46.6264 714.963 46.4091 714.264 46.4091C713.782 46.4091 713.352 46.5135 712.973 46.7223C712.598 46.9311 712.302 47.2358 712.084 47.6364C711.867 48.0369 711.758 48.5227 711.758 49.0938ZM727.734 47.3807L726.379 47.7642C726.293 47.5384 726.168 47.3189 726.001 47.1058C725.839 46.8885 725.618 46.7095 725.337 46.5689C725.055 46.4283 724.695 46.358 724.256 46.358C723.656 46.358 723.155 46.4964 722.754 46.7734C722.358 47.0462 722.16 47.3935 722.16 47.8153C722.16 48.1903 722.296 48.4865 722.569 48.7038C722.842 48.9212 723.268 49.1023 723.847 49.2472L725.305 49.6051C726.183 49.8182 726.837 50.1442 727.267 50.5831C727.697 51.0178 727.913 51.5781 727.913 52.2642C727.913 52.8267 727.751 53.3295 727.427 53.7727C727.107 54.2159 726.66 54.5653 726.085 54.821C725.509 55.0767 724.84 55.2045 724.077 55.2045C723.076 55.2045 722.247 54.9872 721.591 54.5526C720.935 54.1179 720.519 53.483 720.344 52.6477L721.776 52.2898C721.913 52.8182 722.17 53.2145 722.55 53.4787C722.933 53.7429 723.434 53.875 724.052 53.875C724.755 53.875 725.313 53.7259 725.727 53.4276C726.144 53.125 726.353 52.7628 726.353 52.3409C726.353 52 726.234 51.7145 725.995 51.4844C725.756 51.25 725.39 51.0753 724.896 50.9602L723.259 50.5767C722.36 50.3636 721.7 50.0334 721.278 49.5859C720.86 49.1342 720.651 48.5696 720.651 47.892C720.651 47.3381 720.807 46.848 721.118 46.4219C721.433 45.9957 721.862 45.6612 722.403 45.4183C722.948 45.1754 723.566 45.054 724.256 45.054C725.228 45.054 725.991 45.267 726.545 45.6932C727.103 46.1193 727.499 46.6818 727.734 47.3807Z" fill="white"/>
<path d="M759.626 41.9091H761.211V51.267C761.211 52.1023 761.058 52.8118 760.751 53.3956C760.444 53.9794 760.012 54.4226 759.453 54.7251C758.895 55.0277 758.237 55.179 757.478 55.179C756.762 55.179 756.125 55.049 755.567 54.7891C755.009 54.5249 754.57 54.1499 754.25 53.6641C753.931 53.1783 753.771 52.6009 753.771 51.9318H755.33C755.33 52.3026 755.422 52.6264 755.605 52.9034C755.793 53.1761 756.048 53.3892 756.372 53.5426C756.696 53.696 757.065 53.7727 757.478 53.7727C757.934 53.7727 758.322 53.6768 758.642 53.4851C758.961 53.2933 759.204 53.0121 759.37 52.6413C759.541 52.2663 759.626 51.8082 759.626 51.267V41.9091ZM768.172 55.2045C767.286 55.2045 766.508 54.9936 765.839 54.5717C765.174 54.1499 764.654 53.5597 764.279 52.8011C763.909 52.0426 763.723 51.1562 763.723 50.142C763.723 49.1193 763.909 48.2266 764.279 47.4638C764.654 46.701 765.174 46.1087 765.839 45.6868C766.508 45.2649 767.286 45.054 768.172 45.054C769.058 45.054 769.834 45.2649 770.499 45.6868C771.168 46.1087 771.688 46.701 772.058 47.4638C772.433 48.2266 772.621 49.1193 772.621 50.142C772.621 51.1562 772.433 52.0426 772.058 52.8011C771.688 53.5597 771.168 54.1499 770.499 54.5717C769.834 54.9936 769.058 55.2045 768.172 55.2045ZM768.172 53.8494C768.845 53.8494 769.399 53.6768 769.834 53.3317C770.269 52.9865 770.59 52.5327 770.799 51.9702C771.008 51.4077 771.112 50.7983 771.112 50.142C771.112 49.4858 771.008 48.8743 770.799 48.3075C770.59 47.7408 770.269 47.2827 769.834 46.9332C769.399 46.5838 768.845 46.4091 768.172 46.4091C767.499 46.4091 766.945 46.5838 766.51 46.9332C766.075 47.2827 765.754 47.7408 765.545 48.3075C765.336 48.8743 765.232 49.4858 765.232 50.142C765.232 50.7983 765.336 51.4077 765.545 51.9702C765.754 52.5327 766.075 52.9865 766.51 53.3317C766.945 53.6768 767.499 53.8494 768.172 53.8494ZM775.128 55V41.9091H776.637V46.7415H776.765C776.875 46.571 777.029 46.3537 777.225 46.0895C777.425 45.821 777.711 45.5824 778.081 45.3736C778.456 45.1605 778.963 45.054 779.603 45.054C780.429 45.054 781.158 45.2607 781.789 45.674C782.419 46.0874 782.912 46.6733 783.265 47.4318C783.619 48.1903 783.796 49.0852 783.796 50.1165C783.796 51.1562 783.619 52.0575 783.265 52.8203C782.912 53.5788 782.422 54.1669 781.795 54.5845C781.169 54.9979 780.446 55.2045 779.628 55.2045C778.998 55.2045 778.493 55.1001 778.113 54.8913C777.734 54.6783 777.442 54.4375 777.238 54.169C777.033 53.8963 776.875 53.6705 776.765 53.4915H776.586V55H775.128ZM776.611 50.0909C776.611 50.8324 776.72 51.4865 776.937 52.0533C777.154 52.6158 777.472 53.0568 777.89 53.3764C778.307 53.6918 778.819 53.8494 779.424 53.8494C780.054 53.8494 780.581 53.6832 781.002 53.3509C781.429 53.0142 781.748 52.5625 781.961 51.9957C782.179 51.4247 782.287 50.7898 782.287 50.0909C782.287 49.4006 782.181 48.7784 781.968 48.2244C781.759 47.6662 781.441 47.2251 781.015 46.9013C780.593 46.5732 780.063 46.4091 779.424 46.4091C778.81 46.4091 778.294 46.5646 777.877 46.8757C777.459 47.1825 777.144 47.6129 776.931 48.1669C776.718 48.7166 776.611 49.358 776.611 50.0909ZM791.37 55V41.9091H795.947C796.859 41.9091 797.611 42.0668 798.203 42.3821C798.796 42.6932 799.237 43.1129 799.527 43.6413C799.816 44.1655 799.961 44.7472 799.961 45.3864C799.961 45.9489 799.861 46.4134 799.661 46.7798C799.465 47.1463 799.205 47.4361 798.881 47.6491C798.561 47.8622 798.214 48.0199 797.839 48.1222V48.25C798.24 48.2756 798.642 48.4162 799.047 48.6719C799.452 48.9276 799.791 49.294 800.064 49.7713C800.336 50.2486 800.473 50.8324 800.473 51.5227C800.473 52.179 800.324 52.7692 800.025 53.2933C799.727 53.8175 799.256 54.233 798.613 54.5398C797.969 54.8466 797.132 55 796.1 55H791.37ZM792.956 53.5938H796.1C797.136 53.5938 797.871 53.3935 798.306 52.9929C798.745 52.5881 798.964 52.098 798.964 51.5227C798.964 51.0795 798.851 50.6705 798.625 50.2955C798.4 49.9162 798.078 49.6136 797.66 49.3878C797.243 49.1577 796.748 49.0426 796.177 49.0426H792.956V53.5938ZM792.956 47.6619H795.896C796.373 47.6619 796.804 47.5682 797.187 47.3807C797.575 47.1932 797.882 46.929 798.108 46.5881C798.338 46.2472 798.453 45.8466 798.453 45.3864C798.453 44.8111 798.252 44.3232 797.852 43.9226C797.451 43.5178 796.816 43.3153 795.947 43.3153H792.956V47.6619ZM806.862 55.2045C805.975 55.2045 805.197 54.9936 804.528 54.5717C803.864 54.1499 803.344 53.5597 802.969 52.8011C802.598 52.0426 802.413 51.1562 802.413 50.142C802.413 49.1193 802.598 48.2266 802.969 47.4638C803.344 46.701 803.864 46.1087 804.528 45.6868C805.197 45.2649 805.975 45.054 806.862 45.054C807.748 45.054 808.523 45.2649 809.188 45.6868C809.857 46.1087 810.377 46.701 810.748 47.4638C811.123 48.2266 811.31 49.1193 811.31 50.142C811.31 51.1562 811.123 52.0426 810.748 52.8011C810.377 53.5597 809.857 54.1499 809.188 54.5717C808.523 54.9936 807.748 55.2045 806.862 55.2045ZM806.862 53.8494C807.535 53.8494 808.089 53.6768 808.523 53.3317C808.958 52.9865 809.28 52.5327 809.489 51.9702C809.697 51.4077 809.802 50.7983 809.802 50.142C809.802 49.4858 809.697 48.8743 809.489 48.3075C809.28 47.7408 808.958 47.2827 808.523 46.9332C808.089 46.5838 807.535 46.4091 806.862 46.4091C806.188 46.4091 805.634 46.5838 805.2 46.9332C804.765 47.2827 804.443 47.7408 804.234 48.3075C804.026 48.8743 803.921 49.4858 803.921 50.142C803.921 50.7983 804.026 51.4077 804.234 51.9702C804.443 52.5327 804.765 52.9865 805.2 53.3317C805.634 53.6768 806.188 53.8494 806.862 53.8494ZM816.502 55.2301C815.88 55.2301 815.316 55.1129 814.808 54.8786C814.301 54.6399 813.899 54.2969 813.6 53.8494C813.302 53.3977 813.153 52.8523 813.153 52.2131C813.153 51.6506 813.264 51.1946 813.485 50.8452C813.707 50.4915 814.003 50.2145 814.374 50.0142C814.744 49.8139 815.154 49.6648 815.601 49.5668C816.053 49.4645 816.507 49.3835 816.963 49.3239C817.559 49.2472 818.043 49.1896 818.414 49.1513C818.789 49.1087 819.061 49.0384 819.232 48.9403C819.406 48.8423 819.494 48.6719 819.494 48.429V48.3778C819.494 47.7472 819.321 47.2571 818.976 46.9077C818.635 46.5582 818.117 46.3835 817.423 46.3835C816.703 46.3835 816.138 46.5412 815.729 46.8565C815.32 47.1719 815.032 47.5085 814.866 47.8665L813.434 47.3551C813.69 46.7585 814.031 46.294 814.457 45.9616C814.887 45.625 815.356 45.3906 815.863 45.2585C816.374 45.1222 816.877 45.054 817.372 45.054C817.687 45.054 818.049 45.0923 818.458 45.169C818.872 45.2415 819.27 45.3928 819.654 45.6229C820.041 45.853 820.363 46.2003 820.619 46.6648C820.874 47.1293 821.002 47.7514 821.002 48.5312V55H819.494V53.6705H819.417C819.315 53.8835 819.144 54.1115 818.906 54.3544C818.667 54.5973 818.35 54.804 817.953 54.9744C817.557 55.1449 817.073 55.2301 816.502 55.2301ZM816.732 53.875C817.329 53.875 817.832 53.7578 818.241 53.5234C818.654 53.2891 818.965 52.9865 819.174 52.6158C819.387 52.245 819.494 51.8551 819.494 51.446V50.0653C819.43 50.142 819.289 50.2124 819.072 50.2763C818.859 50.3359 818.612 50.3892 818.33 50.4361C818.053 50.4787 817.783 50.517 817.519 50.5511C817.259 50.581 817.048 50.6065 816.886 50.6278C816.494 50.679 816.127 50.7621 815.786 50.8771C815.45 50.9879 815.177 51.1562 814.968 51.3821C814.764 51.6037 814.661 51.9062 814.661 52.2898C814.661 52.8139 814.855 53.2102 815.243 53.4787C815.635 53.7429 816.132 53.875 816.732 53.875ZM823.756 55V45.1818H825.213V46.6648H825.315C825.494 46.179 825.818 45.7848 826.287 45.4822C826.756 45.1797 827.284 45.0284 827.872 45.0284C827.983 45.0284 828.121 45.0305 828.288 45.0348C828.454 45.0391 828.58 45.0455 828.665 45.054V46.5881C828.614 46.5753 828.496 46.5561 828.313 46.5305C828.134 46.5007 827.945 46.4858 827.744 46.4858C827.267 46.4858 826.841 46.5859 826.466 46.7862C826.095 46.9822 825.801 47.255 825.584 47.6044C825.371 47.9496 825.264 48.3437 825.264 48.7869V55H823.756ZM833.862 55.2045C833.043 55.2045 832.321 54.9979 831.695 54.5845C831.068 54.1669 830.578 53.5788 830.224 52.8203C829.871 52.0575 829.694 51.1562 829.694 50.1165C829.694 49.0852 829.871 48.1903 830.224 47.4318C830.578 46.6733 831.07 46.0874 831.701 45.674C832.332 45.2607 833.06 45.054 833.887 45.054C834.526 45.054 835.031 45.1605 835.402 45.3736C835.777 45.5824 836.063 45.821 836.259 46.0895C836.459 46.3537 836.614 46.571 836.725 46.7415H836.853V41.9091H838.362V55H836.904V53.4915H836.725C836.614 53.6705 836.457 53.8963 836.252 54.169C836.048 54.4375 835.756 54.6783 835.376 54.8913C834.997 55.1001 834.492 55.2045 833.862 55.2045ZM834.066 53.8494C834.671 53.8494 835.183 53.6918 835.6 53.3764C836.018 53.0568 836.335 52.6158 836.553 52.0533C836.77 51.4865 836.879 50.8324 836.879 50.0909C836.879 49.358 836.772 48.7166 836.559 48.1669C836.346 47.6129 836.031 47.1825 835.613 46.8757C835.195 46.5646 834.68 46.4091 834.066 46.4091C833.427 46.4091 832.894 46.5732 832.468 46.9013C832.046 47.2251 831.729 47.6662 831.516 48.2244C831.307 48.7784 831.202 49.4006 831.202 50.0909C831.202 50.7898 831.309 51.4247 831.522 51.9957C831.739 52.5625 832.059 53.0142 832.481 53.3509C832.907 53.6832 833.435 53.8494 834.066 53.8494ZM848.288 47.3807L846.933 47.7642C846.848 47.5384 846.722 47.3189 846.556 47.1058C846.394 46.8885 846.173 46.7095 845.891 46.5689C845.61 46.4283 845.25 46.358 844.811 46.358C844.21 46.358 843.71 46.4964 843.309 46.7734C842.913 47.0462 842.714 47.3935 842.714 47.8153C842.714 48.1903 842.851 48.4865 843.124 48.7038C843.396 48.9212 843.822 49.1023 844.402 49.2472L845.859 49.6051C846.737 49.8182 847.391 50.1442 847.822 50.5831C848.252 51.0178 848.467 51.5781 848.467 52.2642C848.467 52.8267 848.305 53.3295 847.982 53.7727C847.662 54.2159 847.214 54.5653 846.639 54.821C846.064 55.0767 845.395 55.2045 844.632 55.2045C843.631 55.2045 842.802 54.9872 842.146 54.5526C841.489 54.1179 841.074 53.483 840.899 52.6477L842.331 52.2898C842.467 52.8182 842.725 53.2145 843.104 53.4787C843.488 53.7429 843.989 53.875 844.607 53.875C845.31 53.875 845.868 53.7259 846.281 53.4276C846.699 53.125 846.908 52.7628 846.908 52.3409C846.908 52 846.788 51.7145 846.55 51.4844C846.311 51.25 845.945 51.0753 845.45 50.9602L843.814 50.5767C842.915 50.3636 842.254 50.0334 841.832 49.5859C841.415 49.1342 841.206 48.5696 841.206 47.892C841.206 47.3381 841.362 46.848 841.673 46.4219C841.988 45.9957 842.416 45.6612 842.957 45.4183C843.503 45.1754 844.121 45.054 844.811 45.054C845.783 45.054 846.545 45.267 847.099 45.6932C847.658 46.1193 848.054 46.6818 848.288 47.3807Z" fill="white"/>
<path d="M875.615 55V41.9091H880.191C881.103 41.9091 881.855 42.0668 882.448 42.3821C883.04 42.6932 883.481 43.1129 883.771 43.6413C884.061 44.1655 884.205 44.7472 884.205 45.3864C884.205 45.9489 884.105 46.4134 883.905 46.7798C883.709 47.1463 883.449 47.4361 883.125 47.6491C882.806 47.8622 882.458 48.0199 882.083 48.1222V48.25C882.484 48.2756 882.887 48.4162 883.291 48.6719C883.696 48.9276 884.035 49.294 884.308 49.7713C884.58 50.2486 884.717 50.8324 884.717 51.5227C884.717 52.179 884.568 52.7692 884.269 53.2933C883.971 53.8175 883.5 54.233 882.857 54.5398C882.213 54.8466 881.376 55 880.345 55H875.615ZM877.2 53.5938H880.345C881.38 53.5938 882.115 53.3935 882.55 52.9929C882.989 52.5881 883.208 52.098 883.208 51.5227C883.208 51.0795 883.095 50.6705 882.869 50.2955C882.644 49.9162 882.322 49.6136 881.904 49.3878C881.487 49.1577 880.992 49.0426 880.421 49.0426H877.2V53.5938ZM877.2 47.6619H880.14C880.617 47.6619 881.048 47.5682 881.431 47.3807C881.819 47.1932 882.126 46.929 882.352 46.5881C882.582 46.2472 882.697 45.8466 882.697 45.3864C882.697 44.8111 882.497 44.3232 882.096 43.9226C881.695 43.5178 881.061 43.3153 880.191 43.3153H877.2V47.6619ZM888.626 41.9091V55H887.117V41.9091H888.626ZM895.377 55.2045C894.491 55.2045 893.713 54.9936 893.044 54.5717C892.379 54.1499 891.859 53.5597 891.484 52.8011C891.114 52.0426 890.928 51.1562 890.928 50.142C890.928 49.1193 891.114 48.2266 891.484 47.4638C891.859 46.701 892.379 46.1087 893.044 45.6868C893.713 45.2649 894.491 45.054 895.377 45.054C896.263 45.054 897.039 45.2649 897.704 45.6868C898.373 46.1087 898.893 46.701 899.263 47.4638C899.638 48.2266 899.826 49.1193 899.826 50.142C899.826 51.1562 899.638 52.0426 899.263 52.8011C898.893 53.5597 898.373 54.1499 897.704 54.5717C897.039 54.9936 896.263 55.2045 895.377 55.2045ZM895.377 53.8494C896.05 53.8494 896.604 53.6768 897.039 53.3317C897.474 52.9865 897.795 52.5327 898.004 51.9702C898.213 51.4077 898.317 50.7983 898.317 50.142C898.317 49.4858 898.213 48.8743 898.004 48.3075C897.795 47.7408 897.474 47.2827 897.039 46.9332C896.604 46.5838 896.05 46.4091 895.377 46.4091C894.704 46.4091 894.15 46.5838 893.715 46.9332C893.281 47.2827 892.959 47.7408 892.75 48.3075C892.541 48.8743 892.437 49.4858 892.437 50.142C892.437 50.7983 892.541 51.4077 892.75 51.9702C892.959 52.5327 893.281 52.9865 893.715 53.3317C894.15 53.6768 894.704 53.8494 895.377 53.8494ZM906.092 58.8864C905.363 58.8864 904.737 58.7926 904.213 58.6051C903.688 58.4219 903.252 58.179 902.902 57.8764C902.557 57.5781 902.282 57.2585 902.078 56.9176L903.279 56.0739C903.416 56.2528 903.588 56.4574 903.797 56.6875C904.006 56.9219 904.291 57.1243 904.654 57.2947C905.02 57.4695 905.499 57.5568 906.092 57.5568C906.884 57.5568 907.539 57.3651 908.054 56.9815C908.57 56.598 908.828 55.9972 908.828 55.179V53.1847H908.7C908.589 53.3636 908.431 53.5852 908.227 53.8494C908.026 54.1094 907.737 54.3416 907.357 54.5462C906.982 54.7464 906.475 54.8466 905.836 54.8466C905.044 54.8466 904.332 54.6591 903.701 54.2841C903.075 53.9091 902.578 53.3636 902.212 52.6477C901.85 51.9318 901.669 51.0625 901.669 50.0398C901.669 49.0341 901.845 48.1584 902.199 47.4126C902.553 46.6626 903.045 46.0831 903.676 45.674C904.306 45.2607 905.035 45.054 905.862 45.054C906.501 45.054 907.008 45.1605 907.383 45.3736C907.762 45.5824 908.052 45.821 908.252 46.0895C908.457 46.3537 908.615 46.571 908.725 46.7415H908.879V45.1818H910.336V55.2812C910.336 56.125 910.144 56.8111 909.761 57.3395C909.382 57.8722 908.87 58.2621 908.227 58.5092C907.588 58.7607 906.876 58.8864 906.092 58.8864ZM906.041 53.4915C906.646 53.4915 907.157 53.353 907.575 53.076C907.992 52.799 908.31 52.4006 908.527 51.8807C908.744 51.3608 908.853 50.7386 908.853 50.0142C908.853 49.3068 908.747 48.6825 908.534 48.1413C908.32 47.6001 908.005 47.1761 907.588 46.8693C907.17 46.5625 906.654 46.4091 906.041 46.4091C905.401 46.4091 904.869 46.571 904.443 46.8949C904.021 47.2187 903.703 47.6534 903.49 48.1989C903.281 48.7443 903.177 49.3494 903.177 50.0142C903.177 50.696 903.284 51.299 903.497 51.8232C903.714 52.343 904.034 52.7521 904.455 53.0504C904.882 53.3445 905.41 53.4915 906.041 53.4915Z" fill="white"/>
<rect x="1269.93" y="25.5" width="106" height="45" rx="11.5" stroke="white"/>
<path d="M1301.84 45.5078C1301.78 44.9496 1301.52 44.5149 1301.08 44.2038C1300.64 43.8928 1300.07 43.7372 1299.37 43.7372C1298.87 43.7372 1298.45 43.8118 1298.1 43.9609C1297.74 44.1101 1297.47 44.3125 1297.28 44.5682C1297.1 44.8239 1297 45.1158 1297 45.4439C1297 45.7166 1297.06 45.9531 1297.18 46.1534C1297.31 46.3537 1297.48 46.5241 1297.7 46.6648C1297.92 46.8011 1298.16 46.9162 1298.42 47.0099C1298.69 47.1037 1298.95 47.1825 1299.22 47.2464L1300.45 47.5533C1300.94 47.6683 1301.42 47.8239 1301.87 48.0199C1302.33 48.2159 1302.75 48.4631 1303.11 48.7614C1303.47 49.0597 1303.76 49.4197 1303.98 49.8416C1304.19 50.2635 1304.3 50.7578 1304.3 51.3246C1304.3 52.0916 1304.1 52.767 1303.71 53.3509C1303.32 53.9304 1302.75 54.3842 1302.01 54.7124C1301.27 55.0362 1300.38 55.1982 1299.33 55.1982C1298.31 55.1982 1297.43 55.0405 1296.68 54.7251C1295.93 54.4098 1295.35 53.9496 1294.93 53.3445C1294.51 52.7393 1294.28 52.0021 1294.25 51.1328H1296.58C1296.62 51.5888 1296.76 51.968 1297 52.2706C1297.25 52.5732 1297.57 52.799 1297.97 52.9482C1298.37 53.0973 1298.82 53.1719 1299.31 53.1719C1299.83 53.1719 1300.28 53.0952 1300.67 52.9418C1301.06 52.7841 1301.36 52.5668 1301.59 52.2898C1301.81 52.0085 1301.92 51.6804 1301.92 51.3054C1301.92 50.9645 1301.82 50.6832 1301.62 50.4616C1301.43 50.2358 1301.15 50.0483 1300.8 49.8991C1300.45 49.7457 1300.04 49.6094 1299.57 49.4901L1298.08 49.1065C1297 48.8295 1296.15 48.4098 1295.53 47.8473C1294.9 47.2805 1294.59 46.5284 1294.59 45.5909C1294.59 44.8196 1294.8 44.1442 1295.22 43.5646C1295.64 42.9851 1296.21 42.5355 1296.94 42.2159C1297.66 41.892 1298.48 41.7301 1299.4 41.7301C1300.33 41.7301 1301.14 41.892 1301.84 42.2159C1302.54 42.5355 1303.1 42.9808 1303.5 43.5518C1303.9 44.1186 1304.1 44.7706 1304.12 45.5078H1301.84ZM1306.31 55V45.1818H1308.62V55H1306.31ZM1307.47 43.7884C1307.1 43.7884 1306.79 43.6669 1306.53 43.424C1306.26 43.1768 1306.13 42.8807 1306.13 42.5355C1306.13 42.1861 1306.26 41.8899 1306.53 41.647C1306.79 41.3999 1307.1 41.2763 1307.47 41.2763C1307.84 41.2763 1308.16 41.3999 1308.42 41.647C1308.68 41.8899 1308.81 42.1861 1308.81 42.5355C1308.81 42.8807 1308.68 43.1768 1308.42 43.424C1308.16 43.6669 1307.84 43.7884 1307.47 43.7884ZM1315.27 58.8864C1314.44 58.8864 1313.73 58.7734 1313.13 58.5476C1312.53 58.326 1312.05 58.0277 1311.69 57.6527C1311.33 57.2777 1311.08 56.8622 1310.94 56.4062L1313.02 55.9013C1313.12 56.093 1313.25 56.2827 1313.43 56.4702C1313.61 56.6619 1313.85 56.8196 1314.15 56.9432C1314.46 57.071 1314.85 57.1349 1315.31 57.1349C1315.97 57.1349 1316.51 56.9751 1316.94 56.6555C1317.37 56.3402 1317.59 55.8203 1317.59 55.0959V53.2358H1317.47C1317.35 53.4744 1317.18 53.7195 1316.95 53.9709C1316.72 54.2223 1316.42 54.4332 1316.04 54.6037C1315.67 54.7741 1315.21 54.8594 1314.64 54.8594C1313.89 54.8594 1313.21 54.6825 1312.59 54.3288C1311.98 53.9709 1311.5 53.4382 1311.14 52.7308C1310.78 52.0192 1310.6 51.1286 1310.6 50.0589C1310.6 48.9808 1310.78 48.071 1311.14 47.3295C1311.5 46.5838 1311.99 46.0192 1312.6 45.6357C1313.21 45.2479 1313.9 45.054 1314.65 45.054C1315.23 45.054 1315.7 45.152 1316.07 45.348C1316.45 45.5398 1316.74 45.772 1316.97 46.0447C1317.19 46.3132 1317.36 46.5668 1317.47 46.8054H1317.6V45.1818H1319.88V55.1598C1319.88 55.9993 1319.68 56.6939 1319.28 57.2436C1318.88 57.7933 1318.33 58.2045 1317.64 58.4773C1316.94 58.75 1316.15 58.8864 1315.27 58.8864ZM1315.29 53.044C1315.78 53.044 1316.2 52.9247 1316.54 52.6861C1316.89 52.4474 1317.15 52.1044 1317.33 51.657C1317.51 51.2095 1317.6 50.6726 1317.6 50.0462C1317.6 49.4283 1317.51 48.8871 1317.33 48.4226C1317.15 47.9581 1316.89 47.598 1316.55 47.3423C1316.21 47.0824 1315.79 46.9524 1315.29 46.9524C1314.77 46.9524 1314.34 47.0866 1314 47.3551C1313.65 47.6236 1313.39 47.9922 1313.22 48.4609C1313.04 48.9254 1312.96 49.4538 1312.96 50.0462C1312.96 50.647 1313.04 51.1733 1313.22 51.625C1313.4 52.0724 1313.66 52.4219 1314.01 52.6733C1314.36 52.9205 1314.78 53.044 1315.29 53.044ZM1324.57 49.2472V55H1322.25V45.1818H1324.46V46.8501H1324.58C1324.8 46.3004 1325.16 45.8636 1325.66 45.5398C1326.16 45.2159 1326.77 45.054 1327.51 45.054C1328.18 45.054 1328.77 45.1989 1329.28 45.4886C1329.78 45.7784 1330.18 46.1982 1330.45 46.7479C1330.73 47.2976 1330.87 47.9645 1330.87 48.7486V55H1328.55V49.1065C1328.55 48.4503 1328.38 47.9368 1328.04 47.5661C1327.71 47.1953 1327.24 47.0099 1326.64 47.0099C1326.24 47.0099 1325.88 47.0994 1325.56 47.2784C1325.25 47.4531 1325.01 47.7067 1324.83 48.0391C1324.65 48.3714 1324.57 48.7741 1324.57 49.2472ZM1337.69 55V45.1818H1340V55H1337.69ZM1338.85 43.7884C1338.48 43.7884 1338.17 43.6669 1337.9 43.424C1337.64 43.1768 1337.51 42.8807 1337.51 42.5355C1337.51 42.1861 1337.64 41.8899 1337.9 41.647C1338.17 41.3999 1338.48 41.2763 1338.85 41.2763C1339.22 41.2763 1339.53 41.3999 1339.79 41.647C1340.06 41.8899 1340.19 42.1861 1340.19 42.5355C1340.19 42.8807 1340.06 43.1768 1339.79 43.424C1339.53 43.6669 1339.22 43.7884 1338.85 43.7884ZM1344.69 49.2472V55H1342.38V45.1818H1344.59V46.8501H1344.71C1344.93 46.3004 1345.29 45.8636 1345.79 45.5398C1346.28 45.2159 1346.9 45.054 1347.63 45.054C1348.31 45.054 1348.9 45.1989 1349.4 45.4886C1349.91 45.7784 1350.3 46.1982 1350.58 46.7479C1350.86 47.2976 1351 47.9645 1350.99 48.7486V55H1348.68V49.1065C1348.68 48.4503 1348.51 47.9368 1348.17 47.5661C1347.83 47.1953 1347.37 47.0099 1346.77 47.0099C1346.36 47.0099 1346 47.0994 1345.69 47.2784C1345.38 47.4531 1345.13 47.7067 1344.95 48.0391C1344.78 48.3714 1344.69 48.7741 1344.69 49.2472Z" fill="white"/>
</svg>
